<?xml version="1.0" standalone="no"?>
<!DOCTYPE svg PUBLIC "-//W3C//DTD SVG 20010904//EN"
 "http://www.w3.org/TR/2001/REC-SVG-20010904/DTD/svg10.dtd">
<svg version="1.0" xmlns="http://www.w3.org/2000/svg"
 width="120.000000pt" height="40.000000pt" viewBox="0 0 120.000000 40.000000"
 preserveAspectRatio="xMidYMid meet">

<g transform="translate(0.000000,40.000000) scale(0.100000,-0.100000)"
fill="#000000" stroke="none">
<path d="M650 351 l0 -51 45 0 c25 0 45 4 45 8 0 14 -23 32 -42 32 -11 0 -18
7 -18 19 0 10 -7 24 -15 31 -13 11 -15 6 -15 -39z"/>
<path d="M592 318 c-8 -8 -12 -49 -12 -118 0 -94 2 -109 20 -125 20 -18 20
-17 20 118 0 76 -4 137 -8 137 -4 0 -13 -5 -20 -12z"/>
<path d="M520 276 c0 -2 7 -9 15 -16 12 -10 15 -10 15 4 0 9 -7 16 -15 16 -8
0 -15 -2 -15 -4z"/>
<path d="M477 264 c-15 -15 8 -34 41 -34 31 0 34 2 22 14 -18 17 -54 29 -63
20z"/>
<path d="M630 240 c0 -17 3 -19 19 -10 32 16 34 30 7 30 -19 0 -26 -5 -26 -20z"/>
<path d="M673 230 c-23 -14 -34 -29 -39 -55 -9 -49 0 -53 25 -10 11 20 34 42
51 49 23 9 27 15 18 24 -16 16 -17 15 -55 -8z"/>
<path d="M421 219 l-23 -19 23 -19 c21 -17 26 -18 40 -5 8 8 32 14 52 14 20 0
37 5 37 10 0 6 -17 10 -37 10 -20 0 -44 6 -52 14 -14 13 -19 12 -40 -5z"/>
<path d="M477 155 c-8 -20 9 -28 32 -15 27 14 36 13 22 -4 -8 -10 -9 -16 -1
-21 11 -7 19 9 17 38 -1 22 -62 24 -70 2z"/>
<path d="M667 163 c-16 -16 -4 -23 38 -23 33 0 45 4 45 15 0 11 -11 15 -38 15
-21 0 -42 -3 -45 -7z"/>
<path d="M650 53 l1 -48 23 25 c12 14 31 30 41 36 36 20 29 34 -19 34 l-46 0
0 -47z"/>
</g>
</svg>
